<?xml version="1.0" encoding="UTF-8" standalone="no"?>
<svg
   height="512px"
   id="Layer_1"
   style="enable-background:new 0 0 512 512;"
   version="1.1"
   viewBox="0 0 512 512"
   width="512px"
   xml:space="preserve"
   sodipodi:docname="211859_mic_icon.svg"
   inkscape:version="1.1.2 (0a00cf5339, 2022-02-04, custom)"
   xmlns:inkscape="http://www.inkscape.org/namespaces/inkscape"
   xmlns:sodipodi="http://sodipodi.sourceforge.net/DTD/sodipodi-0.dtd"
   xmlns="http://www.w3.org/2000/svg"
   xmlns:svg="http://www.w3.org/2000/svg"><defs
     id="defs11" /><sodipodi:namedview
     id="namedview9"
     pagecolor="#ffffff"
     bordercolor="#666666"
     borderopacity="1.0"
     inkscape:pageshadow="2"
     inkscape:pageopacity="0.0"
     inkscape:pagecheckerboard="0"
     showgrid="false"
     inkscape:zoom="1.4199219"
     inkscape:cx="12.324622"
     inkscape:cy="253.88721"
     inkscape:window-width="2556"
     inkscape:window-height="1388"
     inkscape:window-x="0"
     inkscape:window-y="28"
     inkscape:window-maximized="0"
     inkscape:current-layer="Layer_1" /><g
     id="g6"
     style="fill:#ffffff"><path
       d="M112.1,238.1l-0.1,13.6c0.1,65.6,46,120.6,108.1,136.2c1.3,0.1,2.6,0.5,3.8,0.9c5.9,2,10.1,6.9,12.1,12.8v58.7   c0,10.9,8.9,19.7,20,19.7h0.1c11.1,0,19.9-8.8,19.9-19.7v-58.8c2-5.9,6.1-10.7,12-12.7c1.2-0.4,2.5-0.8,3.9-0.9   C354,372.3,400,317.3,400,251.7v-13.6c0-10.4-8.9-18.9-19.5-18.9c-10.6,0-19.5,8.4-19.5,18.9v13.6c0,28.5-11.5,54.1-30.6,72.8   c-19.2,18.6-45.3,30.2-74.5,30.2c-29.2,0-55.1-11.5-74.2-30.2c-19.1-18.7-30.7-44.4-30.7-72.8v-13.6c0-10.4-8.8-18.9-19.5-18.9   C120.9,219.2,112.1,227.7,112.1,238.1z"
       id="path2"
       style="fill:#ffffff" /><path
       d="M179,107.7v143.8c0,41.8,34.7,75.7,77.5,75.7c42.8,0,77.5-33.9,77.5-75.7V107.7c0-41.8-34.7-75.7-77.5-75.7   C213.7,32,179,65.9,179,107.7z"
       id="path4"
       style="fill:#ffffff" /></g></svg>
