<?xml version="1.0" encoding="UTF-8" standalone="no"?>
<svg
   width="240"
   height="240"
   version="1.1"
   id="svg13"
   sodipodi:docname="microphone-sensitivity-low.svg"
   inkscape:version="1.1.2 (0a00cf5339, 2022-02-04, custom)"
   xmlns:inkscape="http://www.inkscape.org/namespaces/inkscape"
   xmlns:sodipodi="http://sodipodi.sourceforge.net/DTD/sodipodi-0.dtd"
   xmlns="http://www.w3.org/2000/svg"
   xmlns:svg="http://www.w3.org/2000/svg">
  <sodipodi:namedview
     id="namedview15"
     pagecolor="#000000"
     bordercolor="#666666"
     borderopacity="1.0"
     inkscape:pageshadow="2"
     inkscape:pageopacity="0"
     inkscape:pagecheckerboard="0"
     showgrid="false"
     inkscape:zoom="0.94661459"
     inkscape:cx="-245.6121"
     inkscape:cy="213.92022"
     inkscape:window-width="2556"
     inkscape:window-height="1388"
     inkscape:window-x="0"
     inkscape:window-y="28"
     inkscape:window-maximized="0"
     inkscape:current-layer="svg13" />
  <defs
     id="defs3">
    <style
       id="current-color-scheme"
       type="text/css">
   .ColorScheme-Text { color:#dfdfdf; } .ColorScheme-Highlight { color:#4285f4; } .ColorScheme-NeutralText { color:#ff9800; } .ColorScheme-PositiveText { color:#4caf50; } .ColorScheme-NegativeText { color:#f44336; }
  </style>
  </defs>
  <g
     transform="matrix(15,0,0,15,-8235,5985.15)"
     id="g11">
    <g
       transform="translate(546,-402.01)"
       id="g9">
      <g
         transform="translate(-201,-647.36)"
         id="g7">
        <path
           opacity="0.35"
           style="fill:currentColor"
           class="ColorScheme-Text"
           d="m 212,650.36 c -1.6621,0 -3,1.3379 -3,3 v 5 c 0,1.6621 1.3379,3 3,3 1.6621,0 3,-1.3379 3,-3 v -5 c 0,-1.6621 -1.3379,-3 -3,-3 z m 0,2 c 0.554,0 1,0.446 1,1 v 5 c 0,0.554 -0.446,1 -1,1 -0.554,0 -1,-0.446 -1,-1 v -5 c 0,-0.554 0.446,-1 1,-1 z m -6,5 v 1 c 0,2.9695 2.1624,5.4322 5,5.9062 v 2.0938 h 2 v -2.0938 c 2.8376,-0.47409 5,-2.9368 5,-5.9062 v -1 h -2 v 1 c 0,2.2334 -1.7666,4 -4,4 -2.2334,0 -4,-1.7666 -4,-4 v -1 z"
           id="path5" />
      </g>
    </g>
  </g>
</svg>
